<svg width="128" height="31" viewBox="0 0 128 31" fill="none" xmlns="http://www.w3.org/2000/svg">
<path d="M50.552 24.144L46.28 11.208C46.12 10.744 45.992 10.32 45.896 9.936C45.816 9.552 45.776 9.232 45.776 8.976C45.472 8.992 45.2 9.008 44.96 9.024C44.736 9.024 44.52 9.032 44.312 9.048V7.2H51.392V8.784C50.8 8.768 50.36 8.88 50.072 9.12C49.8 9.36 49.768 9.848 49.976 10.584C50.216 11.496 50.456 12.408 50.696 13.32C50.936 14.232 51.176 15.144 51.416 16.056C51.56 16.6 51.688 17.112 51.8 17.592C51.928 18.072 52.064 18.696 52.208 19.464H52.232C52.296 19.24 52.392 18.896 52.52 18.432C52.648 17.968 52.784 17.472 52.928 16.944C53.088 16.4 53.224 15.912 53.336 15.48C53.464 15.032 53.552 14.72 53.6 14.544C53.968 13.312 54.336 12.088 54.704 10.872C55.088 9.64 55.464 8.416 55.832 7.2H57.992C58.456 8.672 58.912 10.144 59.36 11.616C59.824 13.088 60.28 14.56 60.728 16.032C60.904 16.576 61.056 17.144 61.184 17.736C61.328 18.312 61.464 18.896 61.592 19.488H61.616C61.76 18.976 61.904 18.448 62.048 17.904C62.208 17.344 62.368 16.768 62.528 16.176C62.752 15.328 62.976 14.488 63.2 13.656C63.424 12.824 63.648 11.992 63.872 11.16C63.968 10.776 64.096 10.384 64.256 9.984C64.416 9.568 64.616 9.232 64.856 8.976C64.6 8.992 64.272 9.008 63.872 9.024C63.472 9.024 63.184 9.032 63.008 9.048V7.2H68.408V8.784C67.864 8.8 67.384 9 66.968 9.384C66.552 9.752 66.184 10.408 65.864 11.352C65.224 13.48 64.576 15.608 63.92 17.736C63.264 19.864 62.608 22 61.952 24.144H59.816L56.984 15.552C56.776 14.928 56.6 14.32 56.456 13.728C56.328 13.12 56.2 12.544 56.072 12C55.992 12.544 55.896 13.072 55.784 13.584C55.672 14.08 55.536 14.6 55.376 15.144L52.64 24.144H50.552ZM68.234 22.44C68.89 22.44 69.29 22.248 69.434 21.864C69.578 21.464 69.65 20.944 69.65 20.304V16.272C69.65 15.984 69.658 15.664 69.674 15.312C69.69 14.944 69.714 14.584 69.746 14.232C69.49 14.248 69.186 14.264 68.834 14.28C68.498 14.28 68.242 14.288 68.066 14.304V12.48H69.026C69.65 12.48 70.218 12.4 70.73 12.24C71.258 12.08 71.602 11.92 71.762 11.76H72.938C72.97 11.92 72.994 12.224 73.01 12.672C73.026 13.104 73.034 13.488 73.034 13.824C73.674 13.024 74.274 12.456 74.834 12.12C75.394 11.784 75.962 11.616 76.538 11.616C77.098 11.616 77.586 11.776 78.002 12.096C78.418 12.4 78.626 12.904 78.626 13.608C78.626 13.848 78.57 14.104 78.458 14.376C78.346 14.632 78.17 14.848 77.93 15.024C77.69 15.2 77.362 15.288 76.946 15.288C76.626 15.288 76.298 15.192 75.962 15C75.626 14.808 75.434 14.44 75.386 13.896C75.066 13.896 74.746 14.032 74.426 14.304C74.106 14.56 73.818 14.872 73.562 15.24C73.322 15.592 73.154 15.92 73.058 16.224V20.136C73.058 20.36 73.05 20.68 73.034 21.096C73.018 21.496 72.994 21.88 72.962 22.248C73.218 22.216 73.498 22.2 73.802 22.2C74.122 22.184 74.362 22.176 74.522 22.176V24H68.234V22.44ZM79.7653 22.44C80.4213 22.44 80.8213 22.248 80.9653 21.864C81.1093 21.464 81.1813 20.944 81.1813 20.304V16.32C81.1813 16.032 81.1893 15.704 81.2053 15.336C81.2213 14.952 81.2453 14.584 81.2773 14.232C81.0213 14.248 80.7173 14.264 80.3652 14.28C80.0293 14.28 79.7733 14.288 79.5973 14.304V12.48C80.7013 12.48 81.5493 12.4 82.1413 12.24C82.7493 12.08 83.1333 11.92 83.2933 11.76H84.5893V20.136C84.5893 20.36 84.5813 20.68 84.5653 21.096C84.5493 21.496 84.5253 21.88 84.4933 22.248C84.7493 22.216 85.0293 22.2 85.3333 22.2C85.6533 22.184 85.8933 22.176 86.0533 22.176V24H79.7653V22.44ZM82.7653 9.864C82.2213 9.864 81.7733 9.672 81.4213 9.288C81.0693 8.904 80.8933 8.44 80.8933 7.896C80.8933 7.352 81.0773 6.888 81.4453 6.504C81.8133 6.12 82.2453 5.928 82.7413 5.928C83.2533 5.928 83.6773 6.12 84.0133 6.504C84.3653 6.888 84.5413 7.352 84.5413 7.896C84.5413 8.44 84.3813 8.904 84.0613 9.288C83.7413 9.672 83.3093 9.864 82.7653 9.864ZM92.2751 24.384C91.7951 24.384 91.3311 24.328 90.8831 24.216C90.4511 24.104 90.0511 23.896 89.6831 23.592C89.3311 23.272 89.0511 22.808 88.8431 22.2C88.6351 21.592 88.5311 20.784 88.5311 19.776L88.5791 13.992H86.9471V12C87.4431 11.984 87.9231 11.816 88.3871 11.496C88.8511 11.176 89.2431 10.76 89.5631 10.248C89.8991 9.736 90.1231 9.2 90.2351 8.64H92.0111L91.9871 12H95.0351V13.848L91.9871 13.92L91.9631 19.824C91.9631 20.192 91.9951 20.56 92.0591 20.928C92.1391 21.28 92.2831 21.576 92.4911 21.816C92.6991 22.04 93.0031 22.152 93.4031 22.152C93.6271 22.152 93.9311 22.072 94.3151 21.912C94.7151 21.752 95.1391 21.352 95.5871 20.712L96.7391 21.792C96.3071 22.432 95.8591 22.928 95.3951 23.28C94.9311 23.632 94.4831 23.888 94.0511 24.048C93.6351 24.208 93.2671 24.304 92.9471 24.336C92.6271 24.368 92.4031 24.384 92.2751 24.384ZM103.125 24.384C101.957 24.384 100.925 24.128 100.029 23.616C99.1331 23.088 98.4371 22.352 97.9411 21.408C97.4451 20.448 97.1971 19.32 97.1971 18.024C97.1971 16.904 97.4451 15.856 97.9411 14.88C98.4371 13.904 99.1331 13.12 100.029 12.528C100.941 11.92 101.997 11.616 103.197 11.616C103.869 11.616 104.525 11.712 105.165 11.904C105.805 12.08 106.381 12.392 106.893 12.84C107.421 13.288 107.837 13.896 108.141 14.664C108.461 15.432 108.613 16.392 108.597 17.544L100.725 17.688C100.725 18.552 100.829 19.328 101.037 20.016C101.261 20.704 101.621 21.248 102.117 21.648C102.613 22.048 103.277 22.248 104.109 22.248C104.589 22.248 105.157 22.12 105.813 21.864C106.485 21.592 107.093 21.12 107.637 20.448L108.717 21.456C108.141 22.272 107.525 22.896 106.869 23.328C106.213 23.744 105.557 24.024 104.901 24.168C104.261 24.312 103.669 24.384 103.125 24.384ZM100.869 16.008H105.285C105.269 15.016 105.077 14.32 104.709 13.92C104.341 13.504 103.877 13.296 103.317 13.296C102.613 13.296 102.061 13.552 101.661 14.064C101.261 14.56 100.997 15.208 100.869 16.008ZM117.08 8.784C116.728 8.8 116.424 8.848 116.168 8.928C115.912 9.008 115.712 9.192 115.568 9.48C115.44 9.752 115.376 10.216 115.376 10.872V20.064C115.376 20.496 115.368 20.912 115.352 21.312C115.336 21.712 115.312 22.016 115.28 22.224C115.536 22.192 115.856 22.176 116.24 22.176C116.64 22.16 116.92 22.152 117.08 22.152V24H110.192V22.416C110.56 22.4 110.864 22.352 111.104 22.272C111.36 22.192 111.552 22.008 111.68 21.72C111.824 21.432 111.896 20.968 111.896 20.328V11.136C111.896 10.704 111.904 10.288 111.92 9.888C111.952 9.488 111.976 9.184 111.992 8.976C111.736 8.992 111.416 9.008 111.032 9.024C110.648 9.024 110.368 9.032 110.192 9.048V7.2H117.08V8.784ZM123.4 24.384C122.92 24.384 122.456 24.328 122.008 24.216C121.576 24.104 121.176 23.896 120.808 23.592C120.456 23.272 120.176 22.808 119.968 22.2C119.76 21.592 119.656 20.784 119.656 19.776L119.704 13.992H118.072V12C118.568 11.984 119.048 11.816 119.512 11.496C119.976 11.176 120.368 10.76 120.688 10.248C121.024 9.736 121.248 9.2 121.36 8.64H123.136L123.112 12H126.16V13.848L123.112 13.92L123.088 19.824C123.088 20.192 123.12 20.56 123.184 20.928C123.264 21.28 123.408 21.576 123.616 21.816C123.824 22.04 124.128 22.152 124.528 22.152C124.752 22.152 125.056 22.072 125.44 21.912C125.84 21.752 126.264 21.352 126.712 20.712L127.864 21.792C127.432 22.432 126.984 22.928 126.52 23.28C126.056 23.632 125.608 23.888 125.176 24.048C124.76 24.208 124.392 24.304 124.072 24.336C123.752 24.368 123.528 24.384 123.4 24.384Z" fill="#522B47"/>
<path d="M14.6475 0V2.67375C13.0394 2.03438 11.315 1.705 9.59062 1.705C6.1225 1.705 2.65438 3.0225 0 5.67687L6.45187 12.1288H8.6025V14.2794C10.2688 15.9456 12.4387 16.8175 14.6281 16.9144V21.3125H8.835V27.125C8.835 29.2563 10.5787 31 12.71 31H32.085C35.3013 31 37.8975 28.4037 37.8975 25.1875V0H14.6475ZM12.4969 12.4194V8.25375H8.07938L6.06438 6.23875C7.16875 5.8125 8.37 5.58 9.59062 5.58C12.1869 5.58 14.6087 6.5875 16.4494 8.40875L19.1812 11.1406L18.7938 11.5281C17.8056 12.5162 16.4881 13.0781 15.0738 13.0781C14.1631 13.0781 13.2719 12.8456 12.4969 12.4194ZM34.0225 25.1875C34.0225 26.2531 33.1506 27.125 32.085 27.125C31.0194 27.125 30.1475 26.2531 30.1475 25.1875V21.3125H18.5225V16.2944C19.6269 15.8488 20.6538 15.19 21.545 14.2987L21.9325 13.9113L27.4156 19.375H30.1475V16.6431L18.5225 5.07625V3.875H34.0225V25.1875Z" fill="#522B47"/>
</svg>
